<?xml version="1.0" standalone="no"?>
<!DOCTYPE svg PUBLIC "-//W3C//DTD SVG 20010904//EN"
 "http://www.w3.org/TR/2001/REC-SVG-20010904/DTD/svg10.dtd">
<svg version="1.0" xmlns="http://www.w3.org/2000/svg"
 width="768.000000pt" height="768.000000pt" viewBox="0 0 768.000000 768.000000"
 preserveAspectRatio="xMidYMid meet">
<metadata>
Created by potrace 1.11, written by Peter Selinger 2001-2013
</metadata>
<g transform="translate(0.000000,768.000000) scale(0.100000,-0.100000)"
fill="#000000" stroke="none">
<path d="M1569 6348 c-19 -4 -53 -9 -77 -13 -23 -3 -53 -10 -67 -15 -14 -5
-25 -7 -25 -5 0 7 -154 -52 -212 -81 -177 -90 -343 -256 -434 -436 -36 -71
-62 -137 -70 -178 -3 -14 -8 -34 -11 -45 -4 -11 -8 -22 -8 -25 -4 -19 -17 -91
-17 -97 0 -5 -4 -18 -9 -31 -5 -12 -11 -33 -13 -45 -8 -38 -13 -57 -71 -287
-31 -124 -58 -232 -60 -240 -2 -8 -15 -62 -30 -120 -14 -58 -28 -112 -30 -120
-2 -8 -24 -100 -50 -205 -26 -104 -48 -197 -50 -205 -2 -8 -8 -35 -15 -60 -13
-49 -18 -72 -26 -110 -2 -14 -9 -36 -14 -50 -5 -14 -11 -38 -14 -55 -2 -16 -5
-30 -6 -30 -1 0 -3 -7 -5 -15 -2 -8 -15 -62 -29 -120 -15 -58 -29 -113 -31
-123 -2 -11 -32 -130 -65 -265 -34 -136 -64 -257 -66 -269 -2 -12 -8 -33 -13
-45 -5 -13 -9 -26 -9 -31 0 -4 -11 -50 -23 -102 -20 -85 -22 -101 -10 -143 14
-54 40 -86 93 -113 34 -17 62 -19 316 -19 l279 0 8 -52 c5 -29 9 -55 10 -58 1
-3 7 -31 15 -63 7 -31 15 -56 16 -54 2 2 6 21 9 43 4 21 8 49 10 62 7 43 56
112 98 139 51 33 120 52 168 46 l36 -4 -2 118 c-1 147 33 336 82 443 125 278
298 463 550 588 80 39 215 86 283 98 149 25 334 25 455 -1 230 -48 426 -154
585 -315 85 -86 92 -94 147 -176 114 -171 183 -400 184 -613 0 -147 -13 -228
-56 -356 -122 -364 -426 -645 -800 -739 -185 -47 -341 -49 -550 -10 -102 19
-277 93 -372 156 -50 33 -48 33 -84 7 -16 -11 -29 -17 -29 -13 0 5 -5 3 -12
-4 -7 -7 -20 -12 -30 -12 -9 0 -40 -5 -68 -11 -60 -13 -79 -36 -87 -106 -2
-26 -9 -55 -14 -64 -10 -19 15 -43 111 -108 115 -77 363 -187 462 -205 13 -2
41 -9 63 -14 144 -38 377 -44 575 -16 62 9 260 63 307 84 25 11 52 20 59 20 8
0 14 5 14 10 0 6 8 10 18 11 9 0 40 14 67 30 28 15 61 34 75 41 28 14 145 95
187 130 110 91 226 219 297 328 20 30 40 60 44 65 9 11 89 176 102 210 4 11
15 38 24 60 18 46 53 183 61 241 3 21 8 44 10 50 4 14 230 13 231 -1 0 -5 4
-30 8 -55 56 -317 196 -590 416 -809 89 -89 227 -201 249 -201 5 0 11 -3 13
-7 9 -21 225 -125 334 -162 159 -54 280 -73 469 -76 107 -2 196 2 240 10 39 7
86 16 105 20 67 12 155 37 168 47 6 6 12 8 12 5 0 -8 112 38 195 80 65 32 180
102 215 130 169 134 259 228 361 379 47 70 139 241 139 259 0 4 6 21 14 38 20
44 63 198 72 257 2 14 6 34 8 45 3 11 5 27 5 35 1 14 36 16 284 16 274 1 285
2 323 23 87 49 108 124 72 261 -11 41 -28 112 -39 158 -10 45 -21 86 -23 91
-3 4 -8 23 -11 42 -3 19 -8 42 -11 51 -3 9 -7 25 -9 35 -2 10 -14 56 -25 103
-12 47 -23 92 -25 100 -2 8 -11 44 -20 80 -9 36 -25 99 -35 140 -10 41 -34
142 -55 224 -20 82 -38 156 -40 165 -2 9 -8 31 -14 49 -5 17 -8 32 -5 32 3 0
0 8 -5 18 -5 9 -12 31 -15 47 -3 17 -17 77 -31 135 -32 135 -33 138 -40 163
-3 12 -10 38 -15 57 -8 31 -34 140 -46 192 -2 10 -6 26 -9 36 -7 29 -46 186
-50 202 -16 69 -129 528 -142 575 -9 33 -34 98 -56 145 -135 291 -397 493
-727 561 -25 5 -56 12 -70 15 -14 2 -76 7 -137 10 -121 7 -159 -2 -211 -50
-94 -85 -64 -253 54 -302 18 -8 71 -16 116 -19 117 -6 159 -13 236 -37 240
-74 397 -248 446 -494 2 -11 25 -104 51 -209 26 -104 49 -198 51 -207 2 -10 7
-28 10 -40 15 -59 53 -218 59 -248 3 -14 12 -47 20 -75 8 -27 30 -115 49 -195
20 -80 67 -273 106 -430 39 -157 73 -296 76 -310 3 -14 10 -43 16 -65 5 -22
12 -47 14 -55 1 -8 15 -62 29 -120 15 -58 28 -112 30 -120 12 -54 28 -117 32
-130 3 -8 7 -22 8 -30 2 -8 12 -53 24 -100 11 -47 21 -88 21 -92 0 -4 -58 -7
-129 -6 l-130 1 -5 26 c-3 14 -8 41 -11 60 -3 19 -8 37 -10 41 -2 4 -6 20 -9
37 -24 133 -142 383 -246 523 -103 137 -250 277 -372 355 -26 16 -29 16 -61
-4 -46 -28 -77 -59 -108 -106 -28 -44 -35 -66 -45 -141 -5 -47 -4 -52 21 -68
76 -50 205 -179 271 -271 133 -187 203 -394 209 -615 2 -64 -1 -136 -5 -160
-5 -25 -10 -58 -13 -75 -34 -210 -151 -431 -311 -590 -93 -91 -103 -100 -180
-149 -113 -72 -283 -144 -381 -160 -16 -3 -41 -8 -55 -11 -114 -23 -374 -19
-422 6 -10 6 -18 8 -18 5 0 -2 -16 0 -36 6 -20 5 -44 11 -53 13 -62 13 -220
87 -307 145 -77 51 -169 132 -229 204 -28 32 -56 64 -62 71 -7 8 -13 16 -13
19 0 3 -12 22 -26 43 -97 142 -172 391 -176 580 -1 76 11 213 20 228 3 5 7 25
9 44 2 19 22 82 43 140 22 57 38 107 35 110 -3 2 -15 6 -27 8 -62 10 -142 73
-172 138 -10 20 -20 60 -23 89 -8 82 -20 86 -61 19 -39 -65 -93 -180 -112
-239 -7 -21 -17 -45 -23 -51 -5 -7 -7 -13 -3 -13 3 0 1 -12 -5 -27 -6 -16 -12
-35 -14 -43 -2 -8 -11 -54 -20 -102 -17 -83 -19 -88 -44 -89 -109 -2 -195 1
-201 8 -4 4 -15 50 -24 101 -16 92 -74 279 -102 334 -8 15 -14 30 -14 33 0 10
-93 162 -138 225 -141 197 -340 365 -566 475 -96 47 -249 101 -313 111 -21 3
-42 8 -46 11 -9 5 -21 7 -127 22 -66 9 -355 8 -400 -2 -14 -3 -42 -8 -62 -11
-57 -9 -128 -25 -178 -42 -99 -33 -185 -68 -192 -78 -4 -6 -8 -8 -8 -3 0 8
-98 -43 -172 -89 -128 -80 -299 -234 -382 -344 -22 -30 -44 -56 -48 -58 -5 -2
-8 -8 -8 -13 0 -5 -13 -28 -30 -51 -46 -63 -166 -321 -170 -366 0 -4 -6 -25
-12 -47 -6 -22 -13 -47 -14 -55 -10 -55 -14 -80 -20 -115 -3 -22 -7 -41 -9
-43 -5 -6 -247 -4 -252 2 -3 3 6 54 21 113 15 60 29 115 31 123 6 26 45 184
49 200 5 17 46 187 51 210 2 8 13 53 25 100 12 47 24 93 26 103 9 39 14 60 59
237 26 102 48 194 50 205 2 11 16 67 31 125 14 58 27 113 28 122 1 10 5 21 9
24 4 4 7 16 7 27 0 12 5 34 10 51 9 26 143 572 155 629 2 10 13 50 23 90 11
40 23 90 27 111 17 99 116 261 204 333 57 47 157 99 236 122 82 24 120 30 235
37 118 8 165 32 205 106 48 87 3 208 -91 250 -35 15 -63 18 -137 16 -52 -1
-109 -6 -128 -10z"/>
</g>
</svg>
